<?xml version="1.0" encoding="UTF-8" standalone="no"?>
<svg
   xmlns:svg="http://www.w3.org/2000/svg"
   xmlns="http://www.w3.org/2000/svg"
   viewBox="0 0 200 200"
   version="1.1">
  <g id="layer1">
    <path
       style="fill:#000000;fill-opacity:1;fill-rule:nonzero;stroke:none;stroke-linecap:round;stroke-linejoin:round;stroke-miterlimit:4;stroke-dasharray:none;stroke-dashoffset:0;stroke-opacity:1;color-rendering:auto;image-rendering:auto;shape-rendering:auto;text-rendering:auto;enable-background:accumulate;stop-color:#000000;stop-opacity:1;opacity:1"
       d="M -99.515625 -107.80469 A 0.44691394 0.44691394 0 0 0 -99.902344 -107.58203 L -125.44336 -63.341797 A 0.44691394 0.44691394 0 0 0 -125.44336 -62.896484 L -99.902344 -18.65625 A 0.44691394 0.44691394 0 0 0 -99.515625 -18.433594 L -48.431641 -18.433594 A 0.44691394 0.44691394 0 0 0 -48.044922 -18.65625 L -22.503906 -62.896484 A 0.44691394 0.44691394 0 0 0 -22.503906 -63.341797 L -48.044922 -107.58203 A 0.44691394 0.44691394 0 0 0 -48.431641 -107.80469 L -99.515625 -107.80469 z M -99.257812 -106.91211 L -48.689453 -106.91211 L -23.40625 -63.119141 L -48.689453 -19.326172 L -99.257812 -19.326172 L -124.54102 -63.119141 L -99.257812 -106.91211 z "
       id="path839"
       transform="matrix(0,-1.1188955,1.1188955,0,170.62363,24.888488)" />
  </g>
</svg>
